# xmcd CD database file
#
# Track frame offsets:
#	150
#	14263
#	28040
#	41441
#	55196
#	68795
#	98716
#	112396
#	125389
#	136330
#	152876
#	167514
#	183558
#	200707
#	213414
#	229686
#	239736
#	257352
#
# Disc length: 3614 seconds
#
# Revision: 0
# Processed by: cddbd v1.5.2PL0 Copyright (c) Steve Scherf et al.
# Submitted via: CDex 1.51
#
DISCID=000e1c12
DTITLE=Duke Ellington - Duke's Mixture - At the Bal Masque
DYEAR=20007
DGENRE=Jazz
TTITLE0=I Let A Song Go Out of My Heart
TTITLE1=The Hawk Talks
TTITLE2=How High the Moon
TTITLE3=Do Nothing Till You Hear From Me
TTITLE4=V.I.P.'s Boogie
TTITLE5=The Mooche
TTITLE6=Alice Blue Gown
TTITLE7=Who's Afraid of the Big Bad Wolf
TTITLE8=Got a Date with an Angel
TTITLE9=Poor Butterfly
TTITLE10=Satan Takes a Holiday
TTITLE11=The Peanut Vendor
TTITLE12=Satin Doll
TTITLE13=Lady in Red
TTITLE14=Indian Love Call
TTITLE15=The Donkey Serenade
TTITLE16=Gypsy Love Song
TTITLE17=Laugh, Clown, Laugh
EXTD=YEAR: 20007
EXTT0=
EXTT1=
EXTT2=
EXTT3=
EXTT4=
EXTT5=
EXTT6=
EXTT7=
EXTT8=
EXTT9=
EXTT10=
EXTT11=
EXTT12=
EXTT13=
EXTT14=
EXTT15=
EXTT16=
EXTT17=
PLAYORDER=
